<svg width="24" height="24" viewBox="0 0 24 24" fill="none" xmlns="http://www.w3.org/2000/svg">
<path fill-rule="evenodd" clip-rule="evenodd" d="M5.37665 0H18.6234C19.6502 0 20.4826 0.832386 20.4826 1.85919V16.4068C20.4826 17.1068 20.167 17.7696 19.6236 18.2109L12.879 23.6881C12.3669 24.104 11.6332 24.104 11.121 23.6881L4.37641 18.2109C3.833 17.7696 3.51746 17.1068 3.51746 16.4068V1.85919C3.51746 0.832386 4.34984 0 5.37665 0Z" fill="#1273EA"/>
<path fill-rule="evenodd" clip-rule="evenodd" d="M16.2993 2.78882C17.0694 2.78882 17.6937 3.41311 17.6937 4.18321V8.68091L17.6933 8.71769C17.674 9.63497 16.9341 10.375 16.0169 10.3946L15.9796 10.3949L16.0164 10.3953C16.9337 10.4147 17.6737 11.1545 17.6933 12.0717L17.6937 12.109V14.9225C17.6937 15.3227 17.5217 15.7037 17.2214 15.9684L13.7188 19.0566L13.7188 12.7535C13.7188 11.9834 13.0945 11.3591 12.3244 11.3591H10.2811L10.281 19.0566L6.77837 15.9684C6.47815 15.7037 6.30615 15.3227 6.30615 14.9225V4.18321C6.30615 3.41311 6.93044 2.78882 7.70055 2.78882H16.2993ZM13.7188 4.71713H10.2811V9.00227H12.3244C13.0945 9.00227 13.7188 8.37797 13.7188 7.60787V4.71713Z" fill="white"/>
</svg>
