<svg width="24" height="24" viewBox="0 0 24 24" fill="none" xmlns="http://www.w3.org/2000/svg">
<path d="M17.5974 15.4782C18.7774 13.8668 19.4832 11.8875 19.4832 9.74175C19.4832 4.3704 15.1129 0.00012207 9.74158 0.00012207C4.37023 0.00012207 0 4.3704 0 9.74175C0 15.1131 4.37028 19.4834 9.74163 19.4834C11.8873 19.4834 13.8668 18.7775 15.4782 17.5975L21.8602 23.9794L23.9794 21.8602C23.9794 21.8601 17.5974 15.4782 17.5974 15.4782ZM9.74163 16.4859C6.02265 16.4859 2.99744 13.4607 2.99744 9.74175C2.99744 6.02277 6.02265 2.99756 9.74163 2.99756C13.4606 2.99756 16.4858 6.02277 16.4858 9.74175C16.4858 13.4607 13.4606 16.4859 9.74163 16.4859Z" fill="#151719"/>
</svg>
