<svg width="24" height="24" viewBox="0 0 24 24" fill="none" xmlns="http://www.w3.org/2000/svg">
<g clip-path="url(#clip0_66_2081)">
<path d="M12.0828 22.7492C16.8224 22.7492 20.6646 18.9069 20.6646 14.1673C20.6646 9.44897 16.8428 5.02494 12.0828 5.02494C7.32275 5.02494 3.50089 9.44897 3.50089 14.1673C3.50089 18.9069 7.34312 22.7492 12.0828 22.7492Z" fill="#77B9A0" stroke="#00432F" stroke-width="0.498222"/>
<path d="M12.0829 21.2296C16.1277 21.2296 19.4068 17.9684 19.4068 13.9454C19.4068 13.0864 19.2573 12.2399 18.9828 11.4396H5.18301C4.90851 12.2399 4.75903 13.0864 4.75903 13.9454C4.75903 17.9684 8.03804 21.2296 12.0829 21.2296Z" fill="#FFAFBC"/>
<path d="M20.1664 14.1673C20.1664 18.6318 16.5472 22.251 12.0828 22.251C7.61828 22.251 3.99911 18.6318 3.99911 14.1673C3.99911 9.68153 7.63866 5.52316 12.0828 5.52316C16.5269 5.52316 20.1664 9.68153 20.1664 14.1673Z" stroke="#BDEAE0" stroke-width="0.498222"/>
<ellipse cx="12.0826" cy="11.5143" rx="6.83809" ry="1.41993" fill="#FFD2DA"/>
<ellipse opacity="0.8" cx="7.33724" cy="9.94483" rx="0.971532" ry="1.30783" transform="rotate(27.2816 7.33724 9.94483)" fill="white"/>
<path d="M20.2502 15L19.7436 14.0785L16.4665 15.3811L13.6174 13.9675L10.3282 16.0563L6.71097 15.0861L4.12488 16.125" stroke="#BDEAE0" stroke-width="0.398577"/>
<ellipse opacity="0.8" cx="17.553" cy="17.3627" rx="0.702268" ry="0.797419" transform="rotate(26.7583 17.553 17.3627)" fill="white"/>
<path d="M11.0786 1.03173C11.0802 1.03088 11.0818 1.03006 11.0834 1.02927L13.4649 1.02934C13.4664 1.03012 13.468 1.03092 13.4696 1.03175C13.4987 1.04676 13.541 1.06918 13.5922 1.0982C13.6949 1.15645 13.8316 1.24019 13.9692 1.34269C14.1077 1.44582 14.2415 1.56389 14.3428 1.68965C14.445 1.81659 14.5033 1.93807 14.5141 2.04988C14.5214 2.1253 14.4913 2.27554 14.4122 2.49961C14.3367 2.71324 14.2286 2.96282 14.1105 3.22139C14.0517 3.35021 13.9909 3.48007 13.931 3.60786L13.9202 3.63087C13.8642 3.75044 13.809 3.86816 13.7578 3.97998C13.65 4.2151 13.5543 4.4351 13.5026 4.60066L13.4936 4.62965L13.4935 4.66001C13.4935 4.81043 13.3715 4.93235 13.2212 4.93235L11.3271 4.93229C11.1767 4.93227 11.0548 4.81033 11.0548 4.65998L11.0548 4.62973L11.0458 4.60084C10.9946 4.43618 10.8994 4.21589 10.7919 3.98002C10.7397 3.86547 10.6834 3.74469 10.6262 3.622L10.619 3.60647C10.5591 3.47813 10.4984 3.34769 10.4395 3.21834C10.3214 2.95874 10.2131 2.70829 10.1373 2.49468C10.0994 2.38795 10.071 2.29389 10.0533 2.21486C10.0352 2.13328 10.0314 2.07967 10.0342 2.0493C10.0447 1.93765 10.1028 1.81633 10.2049 1.68945C10.306 1.56375 10.4399 1.44571 10.5784 1.3426C10.7161 1.24012 10.8529 1.1564 10.9558 1.09816C11.007 1.06915 11.0494 1.04673 11.0786 1.03173Z" fill="url(#paint0_linear_66_2081)" stroke="#00432F" stroke-width="0.398577"/>
</g>
<defs>
<linearGradient id="paint0_linear_66_2081" x1="12.1734" y1="2.67806" x2="12.1734" y2="2.31353" gradientUnits="userSpaceOnUse">
<stop stop-color="#DE8845"/>
<stop offset="1" stop-color="#EEB848"/>
</linearGradient>
<clipPath id="clip0_66_2081">
<rect width="24" height="24" fill="white"/>
</clipPath>
</defs>
</svg>
