<svg width="24" height="24" viewBox="0 0 24 24" fill="none" xmlns="http://www.w3.org/2000/svg">
<g clip-path="url(#clip0_66_2074)">
<path fill-rule="evenodd" clip-rule="evenodd" d="M6.85038 0L17.1496 0C19.5316 0 20.3954 0.248018 21.2663 0.713745C22.1371 1.17947 22.8205 1.86291 23.2863 2.73374C23.752 3.60457 24 4.46835 24 6.85038V17.1496C24 19.5316 23.752 20.3954 23.2863 21.2663C22.8205 22.1371 22.1371 22.8205 21.2663 23.2863C20.3954 23.752 19.5316 24 17.1496 24H6.85038C4.46835 24 3.60457 23.752 2.73374 23.2863C1.86291 22.8205 1.17947 22.1371 0.713745 21.2663C0.248018 20.3954 0 19.5316 0 17.1496L0 6.85038C0 4.46835 0.248018 3.60457 0.713745 2.73374C1.17947 1.86291 1.86291 1.17947 2.73374 0.713745C3.60457 0.248018 4.46835 0 6.85038 0Z" fill="url(#paint0_linear_66_2074)"/>
<g filter="url(#filter0_b_66_2074)">
<g filter="url(#filter1_dd_66_2074)">
<path fill-rule="evenodd" clip-rule="evenodd" d="M8.87148 4.75236C12.5913 4.22116 16.2148 4.15683 19.5991 4.21553C19.7006 4.21729 19.782 4.3007 19.7828 4.4022C19.8091 7.58121 19.7197 9.29924 19.5057 12.2029C19.5021 12.2526 19.5183 12.3025 19.551 12.3402L19.9512 12.8019C20.0313 12.8944 20.0028 13.0377 19.8933 13.0924L19.0014 13.5384C18.8956 13.5913 18.8646 13.7278 18.9372 13.8212L19.8952 15.0529C19.9869 15.1708 19.9106 15.3435 19.7616 15.3549L16.0757 15.6385C15.9564 15.6476 15.8593 15.5438 15.8752 15.4253C16.246 12.6606 16.2463 11.099 16.1766 8.29733C16.174 8.19398 16.2555 8.10712 16.3588 8.10425L17.5653 8.07073C17.7024 8.06692 17.7859 7.92398 17.7106 7.80944C17.3689 7.29013 16.7097 6.57064 16.2291 6.31486C16.1289 6.26151 16.0197 6.33482 16.0068 6.44763L15.8651 7.68769C15.8533 7.791 15.7597 7.86488 15.6563 7.85349C13.8172 7.65085 11.8859 7.70576 9.66286 7.86443C9.57656 7.87059 9.49682 7.81679 9.47052 7.73435C9.12832 6.6618 8.94811 6.00632 8.71594 4.97827C8.69195 4.87203 8.76367 4.76776 8.87148 4.75236ZM9.99088 10.3458C9.88496 10.353 9.8063 10.4471 9.81771 10.5526L9.96035 11.872C9.97287 11.9878 10.0871 12.0644 10.2025 12.0482C10.6549 11.9845 11.1954 12.0776 11.4579 12.231C11.5067 12.2594 11.531 12.3151 11.5302 12.3715C11.5017 14.2698 11.0325 15.0367 10.5522 15.8219L10.4804 15.9395C10.4625 15.9688 10.4531 16.0029 10.4532 16.0373C10.4535 16.3026 10.4511 16.551 10.4488 16.7894V16.7894V16.7894C10.4411 17.585 10.4345 18.2691 10.5326 19.1028C10.541 19.1738 10.5896 19.2337 10.6576 19.2558C11.3962 19.4954 12.0179 19.5627 12.6953 19.636L12.6953 19.636L12.6953 19.636C12.99 19.6678 13.2951 19.7008 13.625 19.7497C13.7341 19.7658 13.8351 19.6842 13.8429 19.5742C14.2235 14.2709 14.3643 11.8862 14.3051 10.522C14.301 10.4285 14.2272 10.3539 14.1338 10.347C12.6328 10.2356 11.4871 10.2435 9.99088 10.3458ZM10.6036 13.2555C10.642 13.805 10.5266 14.2607 10.3459 14.2734C10.1651 14.286 9.98738 13.8508 9.94895 13.3013C9.91052 12.7517 10.0259 12.296 10.2067 12.2834C10.3875 12.2707 10.5652 12.706 10.6036 13.2555ZM3.26404 9.10524C3.30065 9.0183 3.39615 8.97209 3.48704 8.99734L4.17181 9.18756C3.26645 8.48795 3.55336 8.18578 4.36645 7.32944L4.36647 7.32942C4.43895 7.25309 4.51561 7.17235 4.59597 7.08653C4.67066 7.00678 4.79792 7.00586 4.87237 7.08583L5.89555 8.18481C5.95629 8.25005 5.96216 8.3491 5.91188 8.42271C5.69614 8.73855 5.61618 8.92488 5.55004 9.23916C5.46842 9.62705 5.66495 10.03 6.0325 10.1785C6.49938 10.367 6.85886 10.4142 7.30082 10.4722C7.45674 10.4926 7.62293 10.5144 7.80772 10.5443C7.90008 10.5592 7.96632 10.6416 7.96242 10.735C7.91532 11.8652 7.83706 12.5604 7.60002 13.6833C7.58209 13.7683 7.5075 13.8298 7.42069 13.8313C6.22898 13.8518 5.5141 13.8055 4.3684 13.6382C4.28106 13.6255 4.21438 13.5528 4.20894 13.4647C4.14199 12.3799 4.13501 11.7301 4.16821 10.6822C4.17037 10.614 4.13544 10.5499 4.07686 10.5149L3.09298 9.92736C3.01274 9.87944 2.98004 9.77975 3.01631 9.69362L3.26404 9.10524ZM4.87557 11.2477C4.87557 11.2477 4.61869 11.0424 4.60102 11.5495C4.58336 11.9424 4.58383 12.7054 4.76575 13.0659C4.84263 13.2015 4.94528 13.16 5.13627 13.0249C5.30244 12.9022 5.90358 12.3483 6.15807 12.1053C6.20642 12.0591 6.26422 11.9965 6.32686 11.9287C6.59394 11.6396 6.94913 11.2551 7.03615 11.6388C7.04033 11.6583 7.04461 11.6776 7.04888 11.6969C7.08808 11.8737 7.12722 12.0503 7.09106 12.4486C7.07865 12.5846 7.02039 12.6878 6.75492 12.5035C6.55438 12.3745 6.36386 12.2361 6.36386 12.2361C6.36386 12.2361 6.3271 12.1702 6.2402 12.2771L6.22167 12.2999C6.16667 12.367 6.14797 12.3898 6.24688 12.4486C6.27122 12.4629 6.31743 12.493 6.37695 12.5316C6.58601 12.6673 6.9592 12.9097 7.12496 12.9561C7.30067 13.0072 7.40094 13.0062 7.40619 12.661C7.40524 12.387 7.38948 11.6025 7.28969 11.2682C7.21425 11.0601 7.10347 10.9655 6.86426 11.1995C6.62504 11.4334 5.87063 12.1649 5.45809 12.4963C5.4107 12.5319 5.368 12.5668 5.32927 12.5986L5.32924 12.5986C5.14437 12.75 5.04965 12.8276 4.96438 12.5445C4.89181 12.2853 4.79774 11.4783 5.09473 11.6321C5.15114 11.659 5.19897 11.6778 5.23618 11.6924C5.3215 11.7258 5.35106 11.7374 5.30053 11.7763C5.22795 11.8317 5.01929 12.0231 5.01929 12.0231C5.01929 12.0231 4.95483 12.0752 4.98491 12.1879L4.99022 12.2021C5.01562 12.2708 5.02506 12.2963 5.17686 12.1535C5.33872 12.0012 5.45809 11.8861 5.45809 11.8861C5.45809 11.8861 5.48388 11.8455 5.56075 11.9205C5.63762 11.9954 5.65004 12.0164 5.65004 12.0164C5.65004 12.0164 5.67057 12.0723 5.75269 11.9754L5.75534 11.9723C5.83641 11.8772 5.88663 11.8183 5.73216 11.7285C5.57651 11.6368 4.87557 11.2477 4.87557 11.2477Z" fill="white"/>
</g>
</g>
</g>
<defs>
<filter id="filter0_b_66_2074" x="2.62659" y="3.82275" width="17.7454" height="16.304" filterUnits="userSpaceOnUse" color-interpolation-filters="sRGB">
<feFlood flood-opacity="0" result="BackgroundImageFix"/>
<feGaussianBlur in="BackgroundImage" stdDeviation="0.1875"/>
<feComposite in2="SourceAlpha" operator="in" result="effect1_backgroundBlur_66_2074"/>
<feBlend mode="normal" in="SourceGraphic" in2="effect1_backgroundBlur_66_2074" result="shape"/>
</filter>
<filter id="filter1_dd_66_2074" x="-2.15466" y="-0.958496" width="27.3079" height="25.8665" filterUnits="userSpaceOnUse" color-interpolation-filters="sRGB">
<feFlood flood-opacity="0" result="BackgroundImageFix"/>
<feColorMatrix in="SourceAlpha" type="matrix" values="0 0 0 0 0 0 0 0 0 0 0 0 0 0 0 0 0 0 127 0" result="hardAlpha"/>
<feOffset dx="1.40625" dy="1.40625"/>
<feGaussianBlur stdDeviation="1.875"/>
<feComposite in2="hardAlpha" operator="out"/>
<feColorMatrix type="matrix" values="0 0 0 0 0.0181609 0 0 0 0 0 0 0 0 0 0.908044 0 0 0 0.5 0"/>
<feBlend mode="normal" in2="BackgroundImageFix" result="effect1_dropShadow_66_2074"/>
<feColorMatrix in="SourceAlpha" type="matrix" values="0 0 0 0 0 0 0 0 0 0 0 0 0 0 0 0 0 0 127 0" result="hardAlpha"/>
<feOffset dx="-1.40625" dy="-1.40625"/>
<feGaussianBlur stdDeviation="1.875"/>
<feComposite in2="hardAlpha" operator="out"/>
<feColorMatrix type="matrix" values="0 0 0 0 0.0196078 0 0 0 0 0 0 0 0 0 0.909804 0 0 0 0.5 0"/>
<feBlend mode="normal" in2="effect1_dropShadow_66_2074" result="effect2_dropShadow_66_2074"/>
<feBlend mode="normal" in="SourceGraphic" in2="effect2_dropShadow_66_2074" result="shape"/>
</filter>
<linearGradient id="paint0_linear_66_2074" x1="24" y1="24" x2="0" y2="0" gradientUnits="userSpaceOnUse">
<stop stop-color="#131436"/>
<stop offset="1" stop-color="#333473"/>
</linearGradient>
<clipPath id="clip0_66_2074">
<rect width="24" height="24" fill="white"/>
</clipPath>
</defs>
</svg>
