<svg width="24" height="24" viewBox="0 0 24 24" fill="none" xmlns="http://www.w3.org/2000/svg">
<g clip-path="url(#clip0_66_2103)">
<path fill-rule="evenodd" clip-rule="evenodd" d="M0.584135 20.8188C-0.190435 19.4818 -0.19537 17.8883 0.574266 16.5562L8.30024 3.17638C9.06494 1.82951 10.4463 1.03027 11.9955 1.03027C13.5446 1.03027 14.926 1.83445 15.6907 3.17144L23.4266 16.5661C24.1962 17.913 24.1913 19.5164 23.4118 20.8534C22.6421 22.1756 21.2657 22.9699 19.7264 22.9699H4.29418C2.74997 22.9699 1.36364 22.1657 0.584135 20.8188ZM2.26155 19.8518C2.69077 20.5919 3.45054 21.031 4.29911 21.031H19.7313C20.57 21.031 21.3249 20.6017 21.7442 19.8765C22.1685 19.1414 22.1734 18.2632 21.7492 17.5232L14.0133 4.13349C13.594 3.39839 12.8441 2.96423 11.9955 2.96423C11.1518 2.96423 10.397 3.40332 9.97765 4.13842L2.24675 17.5281C1.83233 18.2484 1.83726 19.1167 2.26155 19.8518ZM12.0005 16.4478C12.6715 16.4478 13.2339 17.0102 13.2339 17.6812C13.2339 18.3522 12.6715 18.9146 12.0005 18.9146C11.3542 18.9146 10.7671 18.3522 10.7967 17.7108C10.7671 17.0053 11.3246 16.4478 12.0005 16.4478ZM13.2585 9.13596C13.2585 8.48966 12.8934 7.95683 12.3063 7.78909C11.7192 7.65095 11.1321 7.93217 10.8805 8.48473C10.7966 8.68207 10.767 8.87941 10.767 9.10142C10.7818 9.40978 10.8028 9.71813 10.8237 10.0265C10.8447 10.3348 10.8657 10.6432 10.8805 10.9515C10.9076 11.4276 10.936 11.9037 10.9643 12.3798C10.9927 12.8559 11.0211 13.332 11.0482 13.808C11.0778 14.1189 11.0778 14.4001 11.0778 14.706C11.1025 15.2141 11.4972 15.6039 12.0004 15.6039C12.5036 15.6039 12.8934 15.2388 12.923 14.7356C12.9649 13.9931 13.0068 13.258 13.0488 12.5229C13.0907 11.7878 13.1326 11.0527 13.1746 10.3101C13.1894 10.1153 13.203 9.91913 13.2165 9.723C13.2301 9.52691 13.2437 9.33082 13.2585 9.13596Z" fill="#F8CE48"/>
</g>
<defs>
<clipPath id="clip0_66_2103">
<rect width="24" height="24" fill="white" transform="matrix(-1 0 0 1 24 0)"/>
</clipPath>
</defs>
</svg>
